<svg width="48" height="48" viewBox="0 0 48 48" fill="none" xmlns="http://www.w3.org/2000/svg">
  <path d="M32 22C34.2091 22 36 20.2091 36 18C36 15.7909 34.2091 14 32 14C29.7909 14 28 15.7909 28 18C28 20.2091 29.7909 22 32 22Z" fill="currentColor"/>
  <path d="M16 22C18.2091 22 20 20.2091 20 18C20 15.7909 18.2091 14 16 14C13.7909 14 12 15.7909 12 18C12 20.2091 13.7909 22 16 22Z" fill="currentColor"/>
  <path d="M16 24C12.7 24 6 25.7 6 29V32H26V29C26 25.7 19.3 24 16 24Z" fill="currentColor"/>
  <path d="M32 24C31.3 24 30.5 24.1 29.7 24.2C31.6 25.7 32.9 27.8 32.9 29V32H42V29C42 25.7 35.3 24 32 24Z" fill="currentColor"/>
</svg> 