<svg width="48" height="48" viewBox="0 0 48 48" fill="none" xmlns="http://www.w3.org/2000/svg">
  <path d="M24 4C16.3 4 10 10.3 10 18C10 23.6 13.3 28.4 18 30.6V34H30V30.6C34.7 28.4 38 23.6 38 18C38 10.3 31.7 4 24 4ZM28 28.9V32H20V28.9C15.9 27.2 13 22.9 13 18C13 12 17.9 7 24 7C30.1 7 35 12 35 18C35 22.9 32.1 27.2 28 28.9Z" fill="currentColor"/>
  <path d="M18 38H30V41H18V38Z" fill="currentColor"/>
  <path d="M20 42H28V44H20V42Z" fill="currentColor"/>
  <path d="M24 14V22" stroke="currentColor" stroke-width="2"/>
  <path d="M20 18H28" stroke="currentColor" stroke-width="2"/>
</svg> 