<svg width="48" height="48" viewBox="0 0 48 48" fill="none" xmlns="http://www.w3.org/2000/svg">
  <path d="M24 4C12.95 4 4 12.95 4 24C4 35.05 12.95 44 24 44C35.05 44 44 35.05 44 24C44 12.95 35.05 4 24 4ZM24 40C15.18 40 8 32.82 8 24C8 15.18 15.18 8 24 8C32.82 8 40 15.18 40 24C40 32.82 32.82 40 24 40Z" fill="currentColor"/>
  <path d="M24 14C20.13 14 17 17.13 17 21C17 23.97 18.93 26.44 21.62 27.42C22.01 27.57 22.5 27.33 22.65 26.94C22.8 26.55 22.56 26.06 22.17 25.91C20.15 25.17 18.7 23.24 18.7 21C18.7 18.07 21.07 15.7 24 15.7C26.93 15.7 29.3 18.07 29.3 21C29.3 23.24 27.85 25.17 25.83 25.91C25.44 26.06 25.2 26.55 25.35 26.94C25.47 27.24 25.75 27.42 26.05 27.42C26.14 27.42 26.23 27.4 26.31 27.37C29.07 26.44 31 23.97 31 21C31 17.13 27.87 14 24 14Z" fill="currentColor"/>
  <path d="M24 29C22.9 29 22 29.9 22 31V33C22 34.1 22.9 35 24 35C25.1 35 26 34.1 26 33V31C26 29.9 25.1 29 24 29Z" fill="currentColor"/>
</svg> 