<svg width="115" height="45" viewBox="0 0 115 45" fill="none" xmlns="http://www.w3.org/2000/svg">
<rect x="0.75" y="0.25" width="113.5" height="44.5" rx="22.25" fill="white" fill-opacity="0.2"/>
<rect x="0.75" y="0.25" width="113.5" height="44.5" rx="22.25" stroke="#5A5A5A" stroke-width="0.5"/>
<rect x="1" y="0.5" width="44" height="44" rx="22" fill="#C7C7C7" fill-opacity="0.45"/>
<rect x="1.25" y="0.75" width="43.5" height="43.5" rx="21.75" stroke="white" stroke-opacity="0.2" stroke-width="0.5"/>
<path d="M22.4629 10.0044C23.9531 11.0381 25.4439 12.067 26.9238 13.1147V13.1157C27.0632 13.2147 27.1967 13.347 27.2998 13.4907L27.3916 13.6372C27.9102 14.6072 28.4255 15.5792 28.9375 16.5532L30.4639 19.481C30.5385 19.625 30.5947 19.7826 30.6396 19.9507L23.0605 18.6138C22.9101 18.5622 22.7998 18.4625 22.7217 18.2788L22.6895 18.1929L21.8398 15.6499C21.7923 15.5067 21.7326 15.3608 21.6436 15.1216L21.3516 14.3354L21.166 15.1538C20.6099 17.6022 20.0777 19.9399 19.5322 22.3423C18.9798 22.0605 18.4388 21.7848 17.8662 21.4927C19.0068 17.7673 20.1618 13.9978 21.3174 10.2261C21.689 11.287 22.0607 12.3473 22.4316 13.4077L23.5713 16.6841C23.618 16.8193 23.6817 16.9556 23.7842 17.0669C23.8921 17.1839 24.0303 17.2578 24.1992 17.2896V17.2905C25.3055 17.4995 26.4206 17.7138 27.5566 17.8687L28.0176 17.9312L27.8164 17.5122C27.4647 16.7809 27.1425 15.9626 26.7295 15.2524C26.361 14.6189 25.903 14.0371 25.2441 13.604L24.9492 13.4272L24.7217 13.2974C24.497 13.1626 24.2798 13.0141 24.0625 12.8579L23.1729 12.2114C23.1171 12.172 23.073 12.1407 23.0371 12.1079L23.0039 12.0747H23.0029C22.8176 11.4019 22.6463 10.7261 22.4629 10.0044Z" stroke="white" stroke-width="0.5"/>
<path d="M23.4893 22.1904C23.501 22.3112 23.5145 22.433 23.5371 22.5527L23.584 22.752C23.8103 23.5424 24.0466 24.3366 24.2832 25.1299L24.9844 27.502C25.6887 29.9321 26.3803 32.3654 27.0762 34.7988C26.074 34.1961 25.0717 33.5943 24.0703 32.9912L21.0146 31.1426H21.0137C20.8908 31.068 20.7464 31.0013 20.5811 31.0117C20.4542 31.0198 20.3452 31.0709 20.248 31.1416L20.1543 31.2178C19.311 31.9763 18.4477 32.7084 17.5264 33.5068L17.21 33.7812L17.6016 33.9297L19.1934 34.5312C19.3014 34.5719 19.4208 34.6074 19.5137 34.6377C19.6135 34.6703 19.6988 34.7022 19.7734 34.7422V34.7412C20.6863 35.233 21.6144 35.2059 22.5293 34.8887L22.5283 34.8877C23.0404 34.7106 23.5384 34.5309 24.0459 34.3633L24.0469 34.3643C24.0988 34.3475 24.1466 34.3341 24.1865 34.3291C24.2054 34.3267 24.2178 34.3266 24.2246 34.3271L25.3721 34.916C25.6078 35.039 25.8468 35.1644 26.0918 35.293L26.0449 35.3105C25.3797 35.5161 24.7152 35.7214 24.0508 35.9258L22.0557 36.5342C21.5853 36.676 21.1197 36.7166 20.6719 36.6045L20.4814 36.5469C18.5212 35.8518 16.5692 35.1386 14.5166 34.3174C16.02 33.008 17.5567 31.7173 19.0361 30.3584L19.6719 29.7666C19.9855 29.4698 20.2245 29.3378 20.4385 29.3115C20.6191 29.2895 20.824 29.3379 21.0928 29.5068L21.2119 29.5869C22.1295 30.2382 23.1069 30.8099 24.0361 31.4014V31.4004C24.1555 31.4766 24.3134 31.5816 24.5674 31.6182L24.959 31.6748L24.8418 31.2969C23.9126 28.3046 22.9816 25.3129 22.0488 22.3057L23.4893 22.1904Z" stroke="white" stroke-width="0.5"/>
<path d="M25.667 20.2466C26.6189 20.4102 27.5737 20.5696 28.5244 20.7319L28.5283 20.7329L28.5352 20.7349L28.543 20.7358L32.0596 21.355L31.9336 21.4653L27.8076 24.9106C27.5932 25.0912 27.3963 25.3164 27.2461 25.562C27.1802 25.6691 27.1568 25.796 27.1514 25.8999C27.1485 25.9537 27.1497 26.009 27.1553 26.063L27.1846 26.2202C27.7875 28.4117 28.4033 30.5993 29.0322 32.8481L29.0967 33.0806L29.332 33.0239C29.7335 32.9263 30.1555 32.8417 30.5684 32.7339L30.9775 32.6167C31.4619 32.4633 31.7889 32.3785 32.0518 32.3013C32.3088 32.2258 32.51 32.1562 32.6973 32.0356C32.8852 31.9146 33.0438 31.7526 33.2373 31.5171C33.3333 31.4002 33.4424 31.2597 33.5713 31.0913L34.0244 30.4966L36.7881 26.8911C36.8799 26.7709 36.9583 26.6588 37.0088 26.5562C37.0585 26.4551 37.1018 26.3218 37.0586 26.1782C37.0156 26.0353 36.9072 25.9476 36.8125 25.8911C36.7161 25.8336 36.5917 25.7831 36.4551 25.7329H36.4541C34.6537 25.0705 32.8565 24.3954 31.0566 23.7241C31.3956 23.3634 31.7126 23.0232 32.0469 22.6997C32.055 22.697 32.0689 22.6948 32.0879 22.6929C32.1305 22.6886 32.1729 22.6927 32.1963 22.6997V22.7007C32.9295 22.9296 33.6592 23.1541 34.3818 23.396L35.1016 23.644C36.6029 24.1795 38.0949 24.74 39.6445 25.314C39.6402 25.3221 39.6369 25.3307 39.6328 25.3384C39.6096 25.3817 39.587 25.4215 39.5645 25.4585L39.4951 25.562H39.4941L35.1865 31.2446V31.2456C34.8523 31.6867 34.5312 32.1254 34.1953 32.5474L33.8535 32.9634C33.6834 33.1613 33.4793 33.3345 33.2832 33.4214L33.2002 33.4536C31.5634 33.9697 29.9149 34.4416 28.2646 34.9302L28.2119 34.7876C27.5855 32.6092 26.9519 30.436 26.333 28.2583L25.7197 26.0776C25.6194 25.7164 25.5519 25.4832 25.5176 25.312C25.4832 25.1408 25.4933 25.0791 25.5059 25.0454C25.5198 25.008 25.5529 24.9601 25.6777 24.8501L26.2061 24.3882C26.4764 24.136 26.7549 23.8985 27.0391 23.6636L27.9033 22.9497H27.9043C28.035 22.8386 28.1652 22.7138 28.3799 22.519L28.7646 22.1704L28.251 22.0874L25.9932 21.7329C25.231 21.6178 24.4742 21.5085 23.7236 21.4038H23.7246L23.1934 21.3247H23.1924C22.4184 21.2035 21.6409 21.0814 20.8262 20.9546C20.9232 20.4413 21.0122 19.9626 21.1201 19.4897C21.1356 19.4857 21.1513 19.4818 21.166 19.48C21.181 19.4781 21.1899 19.478 21.1924 19.478V19.4771L25.667 20.2466Z" stroke="white" stroke-width="0.5"/>
<path d="M11.1885 21.0046V21.0037L15.7627 24.9626C15.8304 25.0215 15.8971 25.0811 15.9629 25.1414L16.1572 25.325H16.1582C16.267 25.4312 16.3305 25.5276 16.3604 25.6218C16.3817 25.6891 16.3897 25.7678 16.3711 25.866L16.3428 25.9714C16.2244 26.3265 16.1129 26.6845 16.0049 27.0427L15.6865 28.116C15.5882 28.4465 15.5054 28.7955 15.4834 29.2048L15.4531 29.7634L15.8887 29.4128C17.8527 27.8352 19.8164 26.2561 21.8037 24.6599C21.9388 25.105 22.0733 25.5449 22.1973 25.9871L22.3232 26.4529V26.4539C22.3211 26.4457 22.3241 26.45 22.3223 26.4705C22.3206 26.4889 22.316 26.5122 22.3086 26.5359C22.3012 26.5596 22.2917 26.5786 22.2842 26.5916C22.2827 26.5941 22.2812 26.5959 22.2803 26.5974C19.3535 28.7805 16.4182 30.9524 13.4834 33.1248C13.5068 32.981 13.5307 32.8393 13.5537 32.699L13.7148 31.7664C13.8719 30.9173 14.0283 30.0683 14.1875 29.2205L14.6748 26.6785C14.7126 26.4864 14.7237 26.3004 14.667 26.1189C14.6238 25.9807 14.5466 25.8632 14.4443 25.7556L14.334 25.6511C13.7509 25.1499 13.1743 24.6399 12.5996 24.1267L10.875 22.5818L10.8721 22.5798L10.5127 22.2683L10.3193 22.0994L10.1562 22.2966C9.89396 22.6129 9.63363 22.9234 9.37695 23.2322L8.61914 24.1589C8.49977 24.308 8.42988 24.4819 8.43945 24.6716C8.44898 24.8584 8.53379 25.0277 8.65918 25.1736V25.1746C8.95827 25.5235 9.25336 25.8766 9.5498 26.2312C9.84579 26.5853 10.1437 26.9409 10.4463 27.2917V27.2927C10.8221 27.7289 11.1995 28.1642 11.5791 28.5974L12.7266 29.8884C12.8159 29.9872 12.8662 30.0769 12.8916 30.1648C12.9106 30.2307 12.9182 30.3048 12.9111 30.3923L12.8984 30.4851V30.4861C12.818 30.9459 12.7444 31.4085 12.6631 31.9099C10.5209 29.4694 8.43041 27.0881 6.3291 24.6941C7.63984 23.1428 8.89995 21.65 10.1816 20.1335C10.5246 20.4302 10.8563 20.7182 11.1885 21.0046Z" stroke="white" stroke-width="0.5"/>
<path d="M20.2686 9.75C20.108 10.3076 19.9561 10.8499 19.7969 11.3857L19.6055 12.0117C18.8693 14.3567 18.11 16.714 17.375 19.0625C17.3399 19.174 17.3094 19.2005 17.2988 19.208C17.2929 19.2122 17.282 19.2191 17.2588 19.2246L17.1455 19.2354H17.1445C16.7101 19.2396 16.2755 19.2509 15.8418 19.2656L14.5439 19.3125C14.4427 19.3162 14.3193 19.3409 14.2627 19.3486L14.1201 19.3672L14.0645 19.501C14.0572 19.5187 14.0502 19.537 14.043 19.5547C14.0357 19.5722 14.0287 19.5899 14.0215 19.6074L13.9424 19.7998L14.1162 19.9121C16.2862 21.3207 18.4574 22.7289 20.6572 24.1562C20.1778 24.6958 19.7018 25.2317 19.2158 25.7783L17.0332 24.0156C15.0111 22.4042 12.9845 20.7974 10.9609 19.1885H10.96C10.9346 19.1683 10.9089 19.1514 10.8906 19.1396C10.8688 19.1256 10.8579 19.1188 10.8457 19.1104C10.8165 19.0415 10.7971 18.9847 10.7861 18.9385C10.7894 18.9372 10.7926 18.9358 10.7959 18.9346C10.8163 18.9272 10.8341 18.9224 10.8457 18.9199L10.8447 18.9189C11.6915 18.7424 12.5406 18.5689 13.3896 18.3936L15.9355 17.8594C16.0583 17.8331 16.177 17.7642 16.2676 17.6885C16.3566 17.6141 16.4535 17.5046 16.4961 17.3721C16.7895 16.4625 17.0764 15.5502 17.3623 14.6377L18.2168 11.9014L18.2178 11.9004C18.2328 11.8512 18.2404 11.8033 18.2461 11.7646C18.2524 11.7219 18.2561 11.6898 18.2637 11.6455L18.3184 11.3271L17.9971 11.3535C17.7685 11.3723 17.534 11.4037 17.3145 11.498C17.1443 11.5712 16.9911 11.6791 16.8535 11.834L16.7207 12.0049C16.1128 12.9041 15.4962 13.797 14.875 14.6865L13.002 17.3477C12.9422 17.4316 12.838 17.5112 12.7354 17.5576L12.6348 17.5918C12.0848 17.7129 11.5322 17.8049 10.9707 17.9014L12.7344 15.3154C13.5711 14.0991 14.4212 12.8861 15.2578 11.6631L16.0889 10.4365C16.2592 10.1824 16.4273 10.0123 16.6123 9.90723C16.7489 9.82969 16.9057 9.78202 17.0967 9.76855L17.2988 9.7666C18.2905 9.81376 19.2979 9.75986 20.2686 9.75Z" stroke="white" stroke-width="0.5"/>
<path d="M22.1816 19.3594L28.5764 20.4884L28.5852 20.4894L32.122 21.114L32.1298 21.1161" fill="white"/>
<path d="M55.0962 25.5L54.5537 24.0283H51.2988L50.7617 25.5H49.1235L52.0454 17.9106H53.8394L56.7559 25.5H55.0962ZM51.8037 22.6265H54.0381L52.9263 19.5811L51.8037 22.6265ZM60.6566 19.8013H60.8983V21.2783H60.6566C60.1481 21.2783 59.7506 21.418 59.4642 21.6973C59.1813 21.9766 59.0399 22.3561 59.0399 22.8359V25.5H57.6112V19.8926H59.0399V20.6177C59.4696 20.0734 60.0085 19.8013 60.6566 19.8013ZM65.9 19.8926H67.3287V25.5H65.9V24.8286C65.4095 25.3657 64.8008 25.6343 64.0739 25.6343C63.2933 25.6343 62.6416 25.3532 62.1188 24.791C61.596 24.2288 61.3346 23.5306 61.3346 22.6963C61.3346 21.862 61.596 21.1637 62.1188 20.6016C62.6416 20.0394 63.2933 19.7583 64.0739 19.7583C64.8043 19.7583 65.4131 20.0251 65.9 20.5586V19.8926ZM64.3478 24.2485C64.7918 24.2485 65.1606 24.0999 65.4542 23.8027C65.7514 23.5055 65.9 23.1367 65.9 22.6963C65.9 22.2559 65.7514 21.887 65.4542 21.5898C65.1606 21.2926 64.7918 21.144 64.3478 21.144C63.9074 21.144 63.5403 21.2926 63.2467 21.5898C62.9531 21.887 62.8063 22.2559 62.8063 22.6963C62.8063 23.1367 62.9531 23.5055 63.2467 23.8027C63.5403 24.0999 63.9074 24.2485 64.3478 24.2485ZM71.4174 25.6343C70.5616 25.6343 69.8437 25.3532 69.2636 24.791C68.6871 24.2288 68.3989 23.5306 68.3989 22.6963C68.3989 21.862 68.6871 21.1637 69.2636 20.6016C69.8437 20.0394 70.5616 19.7583 71.4174 19.7583C71.976 19.7583 72.4809 19.8836 72.9321 20.1343C73.3868 20.3849 73.7431 20.7251 74.0009 21.1548L72.7548 21.9014C72.6259 21.6722 72.4433 21.4896 72.207 21.3535C71.9742 21.2139 71.7111 21.144 71.4174 21.144C70.977 21.144 70.61 21.2926 70.3164 21.5898C70.0227 21.887 69.8759 22.2559 69.8759 22.6963C69.8759 23.1367 70.0227 23.5055 70.3164 23.8027C70.61 24.0999 70.977 24.2485 71.4174 24.2485C71.7075 24.2485 71.9707 24.1805 72.207 24.0444C72.4433 23.9048 72.6259 23.7186 72.7548 23.4858L74.0009 24.2324C73.7431 24.6657 73.3868 25.0076 72.9321 25.2583C72.4809 25.509 71.976 25.6343 71.4174 25.6343ZM80.4422 22.707C80.4422 22.8861 80.4314 23.0544 80.4099 23.2119H76.0647C76.165 23.5664 76.3566 23.8475 76.6394 24.0552C76.9223 24.2629 77.2661 24.3667 77.6707 24.3667C77.9965 24.3667 78.2955 24.3022 78.5677 24.1733C78.8398 24.0409 79.0546 23.8743 79.2122 23.6738L80.1682 24.5117C79.871 24.8662 79.5022 25.1419 79.0618 25.3389C78.6249 25.5358 78.1469 25.6343 77.6277 25.6343C77.0405 25.6343 76.5087 25.5054 76.0325 25.2476C75.5563 24.9897 75.1839 24.6353 74.9153 24.1841C74.6468 23.7293 74.5125 23.2262 74.5125 22.6748C74.5125 22.1305 74.6414 21.6364 74.8992 21.1924C75.1606 20.7448 75.5187 20.3939 75.9734 20.1396C76.4318 19.8854 76.9384 19.7583 77.4934 19.7583C78.3349 19.7583 79.0367 20.0394 79.5989 20.6016C80.1611 21.1602 80.4422 21.862 80.4422 22.707ZM78.3904 21.3267C78.1326 21.1154 77.83 21.0098 77.4827 21.0098C77.1354 21.0098 76.8328 21.1154 76.575 21.3267C76.3172 21.5343 76.1435 21.8136 76.054 22.1646H78.9168C78.8273 21.8136 78.6518 21.5343 78.3904 21.3267ZM85.7447 19.8926H87.1734V25.5H85.7447V24.8286C85.2542 25.3657 84.6454 25.6343 83.9186 25.6343C83.138 25.6343 82.4863 25.3532 81.9635 24.791C81.4407 24.2288 81.1793 23.5306 81.1793 22.6963C81.1793 21.862 81.4407 21.1637 81.9635 20.6016C82.4863 20.0394 83.138 19.7583 83.9186 19.7583C84.649 19.7583 85.2577 20.0251 85.7447 20.5586V19.8926ZM84.1925 24.2485C84.6365 24.2485 85.0053 24.0999 85.2989 23.8027C85.5961 23.5055 85.7447 23.1367 85.7447 22.6963C85.7447 22.2559 85.5961 21.887 85.2989 21.5898C85.0053 21.2926 84.6365 21.144 84.1925 21.144C83.7521 21.144 83.385 21.2926 83.0914 21.5898C82.7978 21.887 82.651 22.2559 82.651 22.6963C82.651 23.1367 82.7978 23.5055 83.0914 23.8027C83.385 24.0999 83.7521 24.2485 84.1925 24.2485ZM94.1733 22.707C94.1733 22.8861 94.1625 23.0544 94.141 23.2119H89.7958C89.8961 23.5664 90.0877 23.8475 90.3705 24.0552C90.6534 24.2629 90.9972 24.3667 91.4018 24.3667C91.7276 24.3667 92.0266 24.3022 92.2988 24.1733C92.5709 24.0409 92.7857 23.8743 92.9433 23.6738L93.8993 24.5117C93.6021 24.8662 93.2333 25.1419 92.7929 25.3389C92.356 25.5358 91.878 25.6343 91.3588 25.6343C90.7716 25.6343 90.2398 25.5054 89.7636 25.2476C89.2874 24.9897 88.915 24.6353 88.6464 24.1841C88.3779 23.7293 88.2436 23.2262 88.2436 22.6748C88.2436 22.1305 88.3725 21.6364 88.6303 21.1924C88.8917 20.7448 89.2498 20.3939 89.7045 20.1396C90.1628 19.8854 90.6695 19.7583 91.2245 19.7583C92.066 19.7583 92.7678 20.0394 93.33 20.6016C93.8922 21.1602 94.1733 21.862 94.1733 22.707ZM92.1215 21.3267C91.8637 21.1154 91.5611 21.0098 91.2138 21.0098C90.8665 21.0098 90.5639 21.1154 90.3061 21.3267C90.0483 21.5343 89.8746 21.8136 89.7851 22.1646H92.6479C92.5584 21.8136 92.3829 21.5343 92.1215 21.3267Z" fill="white"/>
</svg>
