<svg width="88" height="89" viewBox="0 0 88 89" fill="none" xmlns="http://www.w3.org/2000/svg">
<rect x="0.5" y="1.41895" width="87" height="87" rx="43.5" fill="white" fill-opacity="0.1"/>
<rect x="0.5" y="1.41895" width="87" height="87" rx="43.5" stroke="white"/>
<path d="M42.6348 18.3018L42.6387 18.3037C44.8989 19.9177 47.1608 21.5267 49.4141 23.1504L51.6641 24.7803C52.0461 25.0595 52.4088 25.4628 52.6328 25.8926V25.8916C54.1267 28.7662 55.606 31.6506 57.0713 34.543L58.5322 37.4385C58.7381 37.8472 58.8783 38.302 58.9746 38.7881L58.7471 38.7461H58.7461L44.0605 36.0791C43.6926 35.9545 43.4321 35.7019 43.2568 35.2812L43.1865 35.0879L41.5547 30.0674H41.5557C41.4659 29.7893 41.3563 29.5122 41.1816 29.0293L40.8887 28.2188L40.7021 29.0605C39.6118 33.9994 38.5716 38.7109 37.501 43.5625C36.2923 42.9282 35.1215 42.3124 33.8662 41.6533C36.1407 34.0099 38.4451 26.2715 40.75 18.5312L40.9238 19.0059C41.658 21.1628 42.3929 23.3184 43.126 25.4746L45.3145 31.9473C45.3995 32.2005 45.5076 32.4339 45.6729 32.6182C45.8224 32.7849 46.0092 32.9012 46.2422 32.9639L46.3447 32.9873C48.4701 33.4003 50.6041 33.8211 52.7783 34.126L53.2354 34.1904L53.04 33.7725C52.3532 32.303 51.7494 30.7193 50.9619 29.3262C50.2165 28.0076 49.2876 26.82 47.916 25.9766L47.6357 25.8125L47.1924 25.5527C46.4622 25.1022 45.7709 24.5707 45.0635 24.0352L44.2031 23.3955C44.0997 23.3202 44.001 23.249 43.9189 23.1719C43.8769 23.1323 43.8466 23.0975 43.8252 23.0674L43.7852 22.9912V22.9902C43.3776 21.4678 43.0047 19.9373 42.5938 18.2764L42.6348 18.3018Z" stroke="white" stroke-width="0.5"/>
<path d="M45.1465 42.644C45.1854 43.0932 45.2252 43.5307 45.3408 43.9438V43.9448C45.994 46.2916 46.6865 48.6412 47.3623 50.9858L48.0303 53.3296C48.7175 55.7692 49.3986 58.2101 50.0771 60.6519L52.1104 67.978H52.1113C52.1412 68.0848 52.1642 68.1919 52.1914 68.3149L51.8164 68.0884L51.8145 68.0874L45.9385 64.4517L40.0703 60.8003C39.8463 60.6603 39.6184 60.5577 39.3701 60.5737C39.181 60.586 39.0117 60.6646 38.8486 60.7866L38.6875 60.9214C37.0662 62.4219 35.4053 63.8716 33.6387 65.4468L33.334 65.7183L33.7139 65.8667L36.7705 67.0552C36.9722 67.1333 37.1891 67.1981 37.377 67.2612C37.5713 67.3265 37.7491 67.3932 37.9102 67.4819V67.4829C39.4892 68.3584 41.095 68.3712 42.7012 67.8657L43.0215 67.7583C44.0016 67.4095 44.9641 67.0523 45.9414 66.7202L45.9404 66.7192C46.0442 66.6847 46.1524 66.6547 46.25 66.6421C46.3514 66.629 46.409 66.6396 46.4355 66.6528V66.6538C47.7683 67.339 49.0859 68.0549 50.5156 68.8257C50.3859 68.8791 50.2681 68.9278 50.1533 68.9712L49.9121 69.0562C48.635 69.4623 47.359 69.8681 46.083 70.272L42.252 71.4731C41.2549 71.7825 40.251 71.8615 39.2822 71.561L39.0889 71.4956C35.1963 70.0754 31.3174 68.6201 27.2246 66.9253C27.3145 66.8737 27.4078 66.8158 27.4922 66.7397C30.4056 64.1272 33.377 61.5623 36.2363 58.8599L37.4551 57.6919C38.0699 57.0934 38.5716 56.792 39.0537 56.731C39.4685 56.6785 39.9131 56.7992 40.457 57.1509L40.6973 57.3159C42.4529 58.598 44.3163 59.7182 46.1104 60.8931V60.8921C46.3379 61.0415 46.6046 61.224 47.04 61.2886L47.4297 61.3462L47.3154 60.9692C45.5022 54.9615 43.6875 48.9536 41.8672 42.9146L45.1465 42.644Z" stroke="white" stroke-width="0.5"/>
<path d="M40.5596 37.3062C41.9935 37.551 43.426 37.8039 44.8584 38.0591L49.1572 38.8247C50.992 39.1491 52.8295 39.4664 54.6631 39.7886V39.7876L54.6641 39.7886L54.6709 39.7905L54.6787 39.7925L61.459 41.022L61.4824 41.0278C61.6241 41.0552 61.7671 41.0823 61.9111 41.1099L61.2959 41.6626C59.3162 43.361 57.3302 45.0561 55.3506 46.7603L53.374 48.4683C53.0295 48.7668 52.7087 49.1294 52.4502 49.5249L52.3438 49.6958C52.2467 49.8579 52.2077 50.0624 52.1982 50.2466C52.191 50.3878 52.2006 50.5339 52.2246 50.6685L52.2529 50.7983C53.4104 55.127 54.5931 59.4479 55.8008 63.8911L55.8643 64.1274L56.1025 64.0679C57.0172 63.839 57.9547 63.6553 58.8604 63.3892L59.2461 63.269C60.1787 62.9651 60.8163 62.7943 61.3135 62.644C61.805 62.4955 62.165 62.3657 62.4951 62.147C62.8254 61.9281 63.111 61.6304 63.4775 61.1714C63.6602 60.9427 63.8671 60.6683 64.1133 60.3374L64.9834 59.1626L70.2891 52.0405C70.4646 51.8042 70.6036 51.5998 70.6895 51.4204C70.7747 51.2424 70.8272 51.049 70.7705 50.855C70.7137 50.6605 70.5656 50.528 70.4014 50.4272C70.2361 50.3259 70.0148 50.2332 69.7529 50.1343H69.7539C67.9743 49.4606 66.1958 48.7806 64.418 48.0981L59.084 46.0483C59.0753 46.0449 59.0669 46.0395 59.0566 46.0347C59.8051 45.2185 60.4949 44.4444 61.2275 43.7163L61.2285 43.7173C61.247 43.6994 61.3086 43.6667 61.4238 43.6548C61.4781 43.6492 61.5338 43.6492 61.585 43.6538L61.7217 43.6802C63.1277 44.1318 64.5303 44.5762 65.9209 45.0552L67.3076 45.5474C70.2736 46.6359 73.2211 47.7778 76.2861 48.9448C76.2333 49.0481 76.1811 49.1491 76.1328 49.2417C76.0871 49.3292 76.0419 49.4127 75.9951 49.4917L75.8477 49.7153V49.7163C74.4733 51.5906 73.0956 53.462 71.7168 55.3325L67.5762 60.9419V60.9429C66.8313 61.9542 66.1129 62.9729 65.3418 63.938L65.0088 64.3472C64.6716 64.7509 64.252 65.1249 63.8291 65.3169L63.6484 65.3872H63.6475C62.0723 65.8982 60.4917 66.3884 58.9082 66.8706L54.1533 68.3101C54.0925 68.3282 54.034 68.338 53.959 68.354C53.9156 68.2426 53.8746 68.1379 53.8379 68.0317L53.7842 67.8599C52.5817 63.5574 51.3645 59.2629 50.1758 54.9595L48.998 50.6519C48.8072 49.945 48.6756 49.4713 48.6074 49.1216C48.5392 48.7717 48.545 48.5916 48.5938 48.4575C48.6435 48.3206 48.7516 48.1924 48.9912 47.9751C49.1625 47.8198 49.3992 47.6195 49.6904 47.354L49.999 47.0659C50.5208 46.5651 51.0618 46.0933 51.6104 45.6265L53.2676 44.2183V44.2173C53.5149 44.001 53.7564 43.7632 54.1748 43.3726L54.5459 43.0269L54.0449 42.9438C53.3291 42.8249 52.6101 42.7069 51.8877 42.5903L49.7109 42.2446L47.5244 41.9106C46.7987 41.8021 46.0756 41.6966 45.3555 41.5933H45.3564L44.3379 41.438H44.3369C42.7751 41.1864 41.2062 40.9327 39.5547 40.6685C39.7678 39.5156 39.9553 38.4443 40.1943 37.3862C40.2168 37.3739 40.25 37.359 40.293 37.3452C40.4023 37.3101 40.5098 37.2991 40.5596 37.3062Z" stroke="white" stroke-width="0.5"/>
<path d="M21.4717 40.376V40.375L30.2539 48.1963C30.3853 48.3137 30.5155 48.4321 30.6436 48.5527L31.0215 48.9219C31.246 49.1476 31.3982 49.3698 31.4717 49.6084C31.5349 49.8138 31.5458 50.048 31.4736 50.3301L31.4375 50.4541C30.9846 51.852 30.5853 53.2726 30.1797 54.6816C29.9935 55.3254 29.8386 55.9933 29.7979 56.7744L29.7686 57.3428L30.207 56.9805C34.0545 53.8007 37.9008 50.6182 41.7959 47.3994L41.7969 47.4014C41.8187 47.4381 41.8364 47.47 41.8506 47.499L41.8828 47.5791C42.1543 48.5014 42.4296 49.4162 42.6807 50.3379L42.9229 51.2637C42.9359 51.3151 42.9311 51.43 42.8906 51.5635C42.8697 51.6326 42.846 51.6869 42.8242 51.7256L42.7725 51.7959H42.7715C36.9947 56.2293 31.2014 60.6405 25.4092 65.0518C25.5391 64.2398 25.6601 63.4625 25.7881 62.6953L25.9473 61.7754C26.3995 59.2596 26.8513 56.7446 27.3184 54.2334L27.791 51.7227C27.86 51.3624 27.8739 51.0429 27.7822 50.7412C27.7127 50.5126 27.5878 50.3115 27.4102 50.1191L27.2148 49.9287C26.0942 48.9376 24.9871 47.9286 23.8828 46.9141L20.5703 43.8633L20.5684 43.8613L19.8779 43.2451L19.6816 43.0693L19.5156 43.2744C18.759 44.2132 18.0149 45.1209 17.2881 46.0332L16.5674 46.9482C16.3664 47.2064 16.2605 47.493 16.2754 47.7949C16.2902 48.0944 16.4227 48.3793 16.6406 48.6396V48.6387C17.2162 49.3296 17.7835 50.0291 18.3525 50.7295C18.637 51.0796 18.9217 51.43 19.208 51.7793L20.0713 52.8223C21.1532 54.114 22.2399 55.402 23.3398 56.6768L24.4443 57.9463C24.6345 58.1628 24.7515 58.3723 24.8125 58.5898C24.8582 58.753 24.875 58.9292 24.8594 59.1279L24.833 59.335C24.6534 60.3912 24.4884 61.4534 24.3008 62.6396C20.0308 57.6346 15.8721 52.7577 11.6885 47.8535C14.3034 44.6694 16.812 41.6134 19.3672 38.5029C20.0871 39.1434 20.7787 39.7611 21.4717 40.376Z" stroke="white" stroke-width="0.5"/>
<path d="M38.7959 18.0879H38.7969C38.8795 18.0868 38.9547 18.0954 39.0596 18.1094C38.7216 19.3111 38.4039 20.4809 38.0703 21.6357L37.7021 22.874C36.6406 26.3534 35.5577 29.8364 34.4863 33.3193L33.4199 36.8027C33.3453 37.0469 33.2657 37.1576 33.1865 37.2158C33.127 37.2595 33.0446 37.2901 32.9121 37.3037L32.7617 37.3115C31.9292 37.3198 31.0962 37.3441 30.2646 37.373L27.7744 37.4648H27.7734C27.5929 37.4716 27.3897 37.5145 27.2559 37.5332L27.1123 37.5537L27.0576 37.6885C27.0436 37.7235 27.0296 37.759 27.0156 37.7939C27.0017 37.8288 26.9876 37.8636 26.9736 37.8984L26.8984 38.0869L27.0674 38.1992C31.3101 41.0328 35.5544 43.8666 39.8574 46.7393C38.827 47.9324 37.8066 49.1141 36.7607 50.3242C36.0482 49.7311 35.3493 49.1469 34.6562 48.5693L32.4033 46.7041C28.5213 43.5212 24.6313 40.3483 20.7461 37.1699H20.7471C20.7072 37.1371 20.6653 37.1088 20.6309 37.0859C20.593 37.0608 20.5656 37.044 20.5381 37.0244L20.4746 36.9688C20.376 36.7357 20.301 36.5206 20.3008 36.3418C20.3152 36.3314 20.3347 36.317 20.3613 36.3027C20.444 36.2585 20.5476 36.2217 20.6191 36.2061L20.6182 36.2051C23.0587 35.6815 25.5057 35.171 27.9492 34.6445L30.3906 34.1123C30.5801 34.0707 30.7748 33.9565 30.9297 33.8232C31.0452 33.7239 31.1581 33.5975 31.2334 33.4561L31.2949 33.3105C31.8578 31.515 32.4104 29.7146 32.959 27.9131L34.5986 22.5068V22.5059C34.6219 22.4276 34.6349 22.3494 34.6455 22.2754C34.6567 22.1972 34.6654 22.1246 34.6807 22.0332L34.7344 21.7158L34.4131 21.7432C33.979 21.7798 33.56 21.8391 33.1738 22.0098C32.8294 22.1621 32.5223 22.398 32.249 22.7617L32.1338 22.9258C29.7985 26.4801 27.3975 29.9833 24.9912 33.4844C24.8271 33.7218 24.5344 33.9324 24.2627 34.0273L24.1484 34.0605C22.9104 34.3411 21.662 34.5442 20.4014 34.7715L24.1045 29.1855C25.7125 26.7805 27.3421 24.385 28.9473 21.9707L30.543 19.5498C30.8826 19.0284 31.2303 18.6614 31.627 18.4297C31.9711 18.2287 32.3666 18.1205 32.8525 18.1162L33.0664 18.1211C34.4989 18.1912 35.9424 18.148 37.3721 18.1143L38.7959 18.0879Z" stroke="white" stroke-width="0.5"/>
<path d="M42.4297 37.3135L54.7067 39.5436L54.7236 39.5457L61.5138 40.7796L61.5288 40.7837" fill="white"/>
</svg>
