<svg width="78" height="76" viewBox="0 0 78 76" fill="none" xmlns="http://www.w3.org/2000/svg">
<rect x="0.228516" width="77.5" height="76" rx="38" fill="black"/>
<path d="M50.8389 27.4375L56.4375 37.2812H50.1621L45.917 27.4375H50.8389ZM42.9639 27.4375L47.209 37.2812H30.167L34.4121 27.4375H42.9639ZM26.5371 27.4375H31.459L27.2139 37.2812H21L26.5371 27.4375ZM21 39.25H27.1523L34.7197 54.7539C34.8428 54.9385 34.5967 55.123 34.4121 54.9385L21 39.25ZM30.1055 39.25H47.2705L38.8418 58.876C38.7803 58.999 38.5957 58.999 38.5342 58.876L30.1055 39.25ZM42.6562 54.7539L50.2236 39.25H56.4375L42.9639 54.9385C42.8408 55.123 42.5332 54.9385 42.6562 54.7539Z" fill="white"/>
</svg>
