<svg width="49" height="53" viewBox="0 0 49 53" fill="none" xmlns="http://www.w3.org/2000/svg">
<rect x="0.5" y="0.650879" width="48" height="51.7997" rx="24" fill="#DCFCE7"/>
<path d="M30.85 16.6509L33.6938 21.6509H30.5063L28.35 16.6509H30.85ZM26.85 16.6509L29.0063 21.6509H20.35L22.5063 16.6509H26.85ZM18.5063 16.6509H21.0063L18.85 21.6509H15.6938L18.5063 16.6509ZM15.6938 22.6509H18.8188L22.6625 30.5259C22.725 30.6196 22.6 30.7134 22.5063 30.6196L15.6938 22.6509ZM20.3188 22.6509H29.0375L24.7563 32.6196C24.725 32.6821 24.6313 32.6821 24.6 32.6196L20.3188 22.6509ZM26.6938 30.5259L30.5375 22.6509H33.6938L26.85 30.6196C26.7875 30.7134 26.6313 30.6196 26.6938 30.5259Z" fill="#16A34A"/>
</svg>
