<svg width="76" height="76" viewBox="0 0 76 76" fill="none" xmlns="http://www.w3.org/2000/svg">
<rect width="76" height="76" rx="38" fill="black"/>
<path d="M32.8508 46.5195C33.6125 47.3398 34.7258 47.75 35.8391 47.75C36.6008 47.75 37.3039 47.5742 37.9484 47.2227L34.843 54.7227C34.6086 55.3086 33.7883 55.4844 33.3195 54.957L31.2102 52.7305L28.1047 52.8477C27.4602 52.9062 26.9328 52.2031 27.2258 51.5586L29.8625 45.0547C30.3313 45.4062 30.8 45.6992 31.3859 45.8164C32.5578 46.168 32.3234 45.9922 32.8508 46.5195ZM49.55 51.5586C49.843 52.2031 49.3156 52.9062 48.6711 52.8477L45.5656 52.7305L43.4563 54.957C42.9875 55.4844 42.1672 55.3086 41.9328 54.7227L38.8273 47.2227C39.4719 47.5742 40.175 47.75 40.9367 47.75C42.05 47.75 43.1633 47.3398 43.925 46.5195C44.4523 45.9922 44.1594 46.168 45.4484 45.8164C45.9758 45.6992 46.4445 45.4062 46.9133 45.0547L49.55 51.5586ZM42.5773 45.1719C41.757 45.9922 40.5852 46.1094 39.6477 45.5234C39.2961 45.2891 38.8273 45.1719 38.3586 45.1719C37.9484 45.1719 37.4797 45.2891 37.1281 45.5234C36.1906 46.1094 35.0188 45.9922 34.257 45.1719C33.3781 44.293 33.2609 44.3516 31.9719 44C31.1516 43.8242 30.507 43.1797 30.2727 42.3008C29.8625 40.6602 29.9797 40.8359 28.7492 39.6641C28.1633 39.0195 27.9289 38.1406 28.1633 37.3203C28.5734 35.6797 28.5734 35.9141 28.1633 34.2148C27.9289 33.3945 28.1633 32.5156 28.7492 31.9297C29.9797 30.6992 29.8625 30.875 30.2727 29.2344C30.507 28.4141 31.1516 27.7695 31.9719 27.5352C33.6125 27.0664 33.3781 27.1836 34.6086 25.9531C35.1945 25.3672 36.0734 25.1328 36.8938 25.3672C38.4758 25.7773 38.3 25.7773 39.882 25.3672C40.7023 25.1328 41.5813 25.3672 42.1672 25.9531C43.3977 27.1836 43.1633 27.0664 44.8039 27.5352C45.6242 27.7695 46.2688 28.4141 46.5031 29.2344C46.9133 30.875 46.7961 30.6992 48.0266 31.9297C48.6125 32.5156 48.8469 33.3945 48.6125 34.2148C48.2023 35.9141 48.2023 35.6797 48.6125 37.3203C48.8469 38.1406 48.6125 39.0195 48.0266 39.6641C46.7961 40.8359 46.9133 40.6602 46.5031 42.3008C46.2688 43.1797 45.6242 43.8242 44.8039 44C43.5734 44.3516 43.4563 44.293 42.5773 45.1719ZM32.8508 35.5625C32.8508 38.668 35.3117 41.1875 38.4172 41.1875C41.4641 41.1875 43.925 38.668 43.925 35.5625C43.925 32.457 41.4641 29.9375 38.4172 29.9375C35.3117 29.9375 32.8508 32.457 32.8508 35.5625Z" fill="white"/>
</svg>
