<svg width="60" height="60" viewBox="0 0 60 60" fill="none" xmlns="http://www.w3.org/2000/svg">
<rect width="60" height="60" rx="30" fill="black"/>
<path d="M37.8906 31.5L39.6875 33.2578C40.2344 33.7656 39.9609 34.6641 39.2578 34.8594L36.8359 35.4844L37.5 37.9062C37.6953 38.6094 37.0703 39.2344 36.3672 39.0391L33.9453 38.375L33.3203 40.7969C33.125 41.5391 32.2266 41.7734 31.7188 41.2266L30 39.4297L28.2422 41.2266C27.7344 41.7344 26.8359 41.5391 26.6406 40.7969L26.0156 38.375L23.5938 39.0391C22.8906 39.2344 22.2656 38.6094 22.4609 37.9062L23.125 35.4844L20.7031 34.8594C20 34.6641 19.7266 33.7656 20.2734 33.2578L22.0703 31.5L20.2734 29.7422C19.7266 29.2344 20 28.3359 20.7031 28.1797L23.125 27.5547L22.4609 25.1328C22.2656 24.4297 22.8906 23.7656 23.5938 23.9609L26.0156 24.6641L26.6406 22.2031C26.7969 21.5 27.7344 21.2656 28.2422 21.8125L30 23.6094L31.7188 21.8125C32.2266 21.2656 33.1641 21.5391 33.3203 22.2031L33.9453 24.6641L36.3672 23.9609C37.0703 23.7656 37.6953 24.4297 37.5 25.1328L36.8359 27.5547L39.2578 28.1797C39.9609 28.3359 40.2344 29.2344 39.6875 29.7422L37.8906 31.5Z" fill="white"/>
</svg>
