<svg width="76" height="76" viewBox="0 0 76 76" fill="none" xmlns="http://www.w3.org/2000/svg">
<rect width="76" height="76" rx="38" fill="black"/>
<path d="M44.5867 29C45.1141 29 45.5828 29.2344 45.9344 29.5859L49.0984 32.75V44.1172C48.9813 43.9414 48.8055 43.8242 48.6883 43.6484L40.1336 36.7344L41.657 35.3281C42.0672 34.9766 42.0672 34.3906 41.7156 34.0391C41.3641 33.6289 40.7781 33.6289 40.368 33.9805L35.7391 38.2578C35.6805 38.2578 35.6805 38.2578 35.6805 38.2578C34.6844 39.1367 33.1609 38.9023 32.3992 38.082C31.5789 37.2031 31.5789 35.7383 32.5164 34.8008L38.3172 29.5273C38.6688 29.1758 39.0789 29 39.5477 29H44.5867ZM51.032 32.8086H56.657V47.8086H52.907C51.8523 47.8086 51.032 46.9297 51.032 45.9336V32.8086ZM53.8445 45.9336C54.3133 45.9336 54.782 45.4648 54.782 44.9961C54.782 44.4688 54.3133 44.0586 53.8445 44.0586C53.3172 44.0586 52.907 44.4688 52.907 44.9961C52.907 45.4648 53.3172 45.9336 53.8445 45.9336ZM19.157 47.75V32.8086H24.782V45.875C24.782 46.9297 23.9031 47.75 22.907 47.75H19.157ZM21.9695 44.0586C21.4422 44.0586 21.032 44.4688 21.032 44.9961C21.032 45.4648 21.4422 45.9336 21.9695 45.9336C22.4383 45.9336 22.907 45.4648 22.907 44.9961C22.907 44.4688 22.4383 44.0586 21.9695 44.0586ZM47.4578 45.1133C48.2781 45.7578 48.3953 46.9297 47.7508 47.75L47.2234 48.4531C46.5203 49.2734 45.3484 49.3906 44.5867 48.7461L44.2352 48.4531L42.4188 50.7383C41.657 51.6758 40.2508 51.793 39.3133 51.0312L38.3172 50.1523H38.2586C36.9695 51.7344 34.6258 52.0273 32.9852 50.6797L27.7117 45.875H26.657V32.75L29.8211 29.5859C30.1727 29.2344 30.6414 29 31.1688 29H36.0906L31.2859 33.3945C29.5867 34.9766 29.4695 37.6719 30.993 39.3711C32.575 41.0703 35.2117 41.2461 36.9695 39.6055L38.7273 38.0234L47.4578 45.1133Z" fill="white"/>
</svg>
