<svg width="406" height="125" viewBox="0 0 406 125" fill="none" xmlns="http://www.w3.org/2000/svg">
<path d="M110.736 49.8612L110.092 49.7545L109.456 49.6478L77.2423 44.3465H77.2341C76.0893 44.006 75.3631 43.2387 74.9404 42.0488C73.7587 38.7252 72.5647 35.4016 71.3666 32.0822C71.1737 31.5406 70.944 31.0154 70.5542 30.0388C68.1128 40.0587 65.7863 49.6068 63.3859 59.4626C60.3824 58.0347 57.5102 56.6684 54.3877 55.183C59.5125 39.5787 64.7072 23.7733 69.9018 7.96789H70.2793C70.5295 8.58336 70.788 9.19063 71.0219 9.81021C74.2388 18.3735 77.468 26.9286 80.6438 35.5042C80.9967 36.4562 81.4727 37.0634 82.4862 37.2399C87.1474 38.0605 91.8086 38.8934 96.5559 39.4966C93.495 33.5634 91.3982 27.1707 84.944 23.9169C82.2851 22.5793 79.8766 20.7287 77.3695 19.0875C76.9346 18.8002 76.3725 18.4433 76.2453 18.0083C75.2646 14.6889 74.3742 11.3489 73.3689 7.68066C74.0419 7.95147 74.3414 8.01302 74.5794 8.17304C81.1814 12.4444 87.7957 16.6994 94.3607 21.0324C95.2593 21.6273 96.1128 22.4849 96.6462 23.4122C101.012 31.0236 105.32 38.6678 109.575 46.3407C110.166 47.4034 110.527 48.5974 110.736 49.8612Z" fill="#157E71"/>
<path d="M95.5462 107.059C95.698 107.552 95.8006 108.056 96.0058 108.885C95.1728 108.43 94.623 108.138 94.0814 107.831C85.4976 103.018 76.9097 98.217 68.3464 93.363C67.419 92.8378 66.8405 92.8255 65.9788 93.5476C62.4214 96.5306 58.7737 99.4152 54.9085 102.538C57.3047 103.383 59.4548 104.142 61.6048 104.897C62.4583 105.197 63.3733 105.377 64.1693 105.775C67.6898 107.544 71.276 107.466 74.9196 106.288C77.0574 105.599 79.1787 104.885 81.3247 104.224C81.8006 104.08 82.4284 103.933 82.8346 104.121C86.0761 105.631 89.2766 107.219 92.8053 108.939C91.8083 109.296 91.0984 109.591 90.368 109.804C84.7713 111.417 79.1828 113.034 73.5779 114.605C71.1693 115.282 68.6951 115.434 66.2989 114.642C57.4237 111.708 48.5732 108.701 39.1934 105.155C39.7022 104.897 40.2807 104.716 40.7115 104.364C48.0193 98.4263 55.4624 92.6367 62.524 86.4163C65.2731 83.9914 67.3493 83.6508 70.3323 85.6244C74.1646 88.1602 78.2145 90.3636 82.1699 92.7106C82.6664 93.006 83.1629 93.3096 83.9876 93.4204C79.9501 81.2997 75.9085 69.1789 71.8546 56.9925L80.2537 56.3647C80.3604 57.4521 80.4302 58.4327 80.7133 59.3477C82.6254 65.5723 84.6728 71.7557 86.6054 77.9761C89.6172 87.6637 92.5714 97.3636 95.5462 107.059Z" fill="#304858"/>
<path d="M80.1349 55.302C80.1308 55.2855 80.1308 55.2855 80.1267 55.2527C80.1349 55.2855 80.1349 55.2855 80.1349 55.302C83.2902 55.7123 86.4702 56.1431 89.6747 56.5945C92.867 57.0458 96.0305 57.5095 99.1653 57.9813C98.2339 58.7691 97.7251 59.2246 97.1917 59.6472C94.7955 61.5347 92.309 63.3195 90.0112 65.3178C86.2199 68.6085 86.0106 67.3612 87.6683 72.9251C91.0739 84.3401 94.6437 95.7058 98.156 107.092C98.3078 107.58 98.5335 108.044 98.7263 108.52C99.1284 108.438 99.391 108.397 99.6495 108.327C106.592 106.411 113.555 104.552 120.465 102.521C121.667 102.168 122.828 101.245 123.698 100.301C125.684 98.1349 127.49 95.8002 129.344 93.5188C135.396 86.0962 141.444 78.6736 147.468 71.2304C147.972 70.6109 148.317 69.8641 148.756 69.1419C141.838 66.758 135.191 64.4192 128.503 62.1953C124.453 60.8494 120.346 59.6759 116.243 58.4819C115.746 58.3383 114.95 58.3711 114.61 58.6748C112.837 60.2709 111.171 61.9819 109.354 63.7668C109.747 63.9514 109.916 64.054 110.1 64.1197C117.892 66.8277 125.68 69.5564 133.48 72.2316C135.77 73.0153 135.938 73.3887 134.407 75.2557C130.538 79.9743 126.657 84.6806 122.783 89.3952C116.809 96.666 118.68 94.9508 110.482 97.3717C108.262 98.0282 105.964 98.418 103.63 98.9473C100.983 90.1255 98.394 81.5499 95.8582 72.9579C95.6941 72.4039 95.7023 71.5997 95.9977 71.1525C96.568 70.2826 97.323 69.4784 98.1437 68.8342C103.909 64.3043 109.715 59.8236 115.5 55.3266C116.103 54.8547 116.69 54.3582 117.679 53.554C116.989 53.4309 116.312 53.316 115.656 53.2011L115.619 53.1929L100.741 50.7474L100.704 50.7392C96.6829 50.0991 92.6618 49.4714 88.6407 48.8272C82.3629 47.8219 76.085 46.7838 69.799 45.8113C69.3476 45.7457 68.4655 45.9837 68.3998 46.2381C67.8213 48.5399 67.3822 50.8746 66.8652 53.3858C70.6894 53.9397 74.3043 54.469 77.9027 54.9942L80.1349 55.302Z" fill="#3A3A3C"/>
<path d="M24.0243 58.4617C21.8086 60.9523 19.6545 63.3199 17.5701 65.7489C16.8192 66.6229 16.8725 67.5666 17.7178 68.4816C20.2453 71.2308 22.699 74.0455 25.2348 76.7865C28.3942 80.2044 31.5701 83.6059 34.8075 86.95C35.7266 87.8978 36.0261 88.8662 35.7881 90.1176C35.3368 92.5221 34.9305 94.9389 34.4382 97.7372C24.7096 87.4054 15.2518 77.3568 5.73242 67.2466C11.6902 60.6733 17.3936 54.3832 23.2119 47.9658C24.9434 49.3609 26.5929 50.6944 28.2465 52.0239C34.6597 57.1979 41.0771 62.372 47.4903 67.5502C48.073 68.0221 48.6433 68.5063 49.1973 69.011C50.2559 69.9752 50.7811 71.0461 50.2395 72.5561C49.2506 75.3216 48.3807 78.1323 47.4903 80.9348C47.0882 82.1944 46.76 83.4787 46.6738 84.9764C55.2658 78.5426 63.8579 72.1047 72.5607 65.5889C72.7822 65.9582 73.0243 66.2331 73.131 66.5532C73.9229 68.9904 74.7354 71.4195 75.4165 73.8896C75.5437 74.3451 75.2606 75.2026 74.8872 75.4611C62.1058 84.3486 49.2875 93.1909 36.4733 102.033C36.3543 102.115 36.1984 102.14 35.7963 102.292C36.2682 99.6698 36.6662 97.2243 37.1504 94.7911C38.4716 88.1317 39.7928 81.4723 41.192 74.8292C41.4792 73.4711 41.2535 72.6546 40.1046 71.7314C35.189 67.7923 30.3842 63.7138 25.5384 59.6845C25.124 59.348 24.7055 59.0156 24.0243 58.4617Z" fill="#683353"/>
<path d="M24.7916 41.3883C27.594 37.56 30.3801 33.7194 33.1948 29.9035C37.8971 23.5313 42.6732 17.2083 47.2974 10.7787C48.8402 8.63269 50.5717 7.59459 53.3127 7.71769C57.4774 7.90233 61.6585 7.68897 65.8355 7.65204C66.1925 7.64794 66.5454 7.71359 67.1157 7.77103C66.0448 11.2013 65.0723 14.5207 63.9686 17.7951C60.8625 27.019 57.6825 36.2183 54.5846 45.4463C54.2277 46.5049 53.6984 46.8003 52.6233 46.8085C48.9838 46.8414 45.3484 46.9973 41.7089 47.1122C41.3478 47.1245 40.9868 47.1983 40.6298 47.2435C40.5682 47.383 40.5067 47.5225 40.4451 47.662C49.9111 53.39 59.3812 59.118 68.9868 64.9281C66.4756 67.5624 63.9973 70.1638 61.4451 72.839C58.0313 70.2663 54.7734 67.7839 51.4868 65.3425C42.9809 59.0237 34.4586 52.7253 25.9445 46.4146C25.686 46.2218 25.3168 46.0864 25.1937 45.8279C24.9598 45.3273 24.7218 44.7488 24.7751 44.2318C24.7998 43.9897 25.4809 43.7148 25.8953 43.6327C33.0307 42.2458 40.1784 40.9041 47.3056 39.4762C47.9047 39.3572 48.6925 38.7704 48.8812 38.2206C51.3472 31.0934 53.723 23.9293 56.1192 16.7775C56.1972 16.5395 56.2136 16.2769 56.2834 15.8994C54.4041 16.043 52.9147 16.3507 51.7001 18.0248C46.5794 25.0864 41.315 32.0454 36.0424 38.9961C35.5542 39.6362 34.6597 40.1778 33.8678 40.342C30.9504 40.941 27.9961 41.3636 25.0542 41.8519C24.9639 41.7042 24.8777 41.5483 24.7916 41.3883Z" fill="#D8AB38"/>
<path d="M73.8037 46.3164L100.704 50.7437L100.741 50.7478L115.619 53.1974L115.652 53.2056" fill="black"/>
<path d="M163.027 44.7V22.0259H178.275V26.6707H168.312V30.9297H177.729V35.316H168.312V40.0265H178.849V44.7041H163.027V44.7Z" fill="black"/>
<path d="M192.049 26.6991V44.6997H186.571V26.6991H180.166V22.0215H198.454V26.6991H192.049Z" fill="black"/>
<path d="M215.141 44.7V35.2217H206.299V44.7041H200.821V22.0259H206.299V30.6097H215.141V22.0259H220.619V44.7041H215.141V44.7Z" fill="black"/>
<path d="M225.17 44.7V22.0259H230.68V44.7041H225.17V44.7Z" fill="black"/>
<path d="M246.502 45.3112C239.424 45.3112 234.172 40.4407 234.172 33.2684C234.172 25.9976 239.424 21.4185 246.502 21.4185C253.613 21.4185 258.865 25.9976 258.865 33.2684C258.869 40.4407 253.613 45.3112 246.502 45.3112ZM246.502 26.3464C242.657 26.3464 240.031 29.2924 240.031 33.2643C240.031 37.3634 242.69 40.3094 246.502 40.3094C250.314 40.3094 253.005 37.3634 253.005 33.2643C253.005 29.2965 250.347 26.3464 246.502 26.3464Z" fill="black"/>
<path d="M270.564 36.149H267.839V44.7H262.361V22.0259H270.691C275.656 22.0259 279.562 23.819 279.562 29.0095C279.562 34.2615 275.303 36.149 270.564 36.149ZM270.239 26.445H267.839V31.7955H270.145C272.197 31.7955 274.084 31.1882 274.084 29.0423C274.084 26.8594 272.197 26.445 270.239 26.445Z" fill="black"/>
<path d="M282.733 44.7V22.0259H288.244V44.7041H282.733V44.7Z" fill="black"/>
<path d="M308.168 44.6997L306.408 40.2477H297.632L295.966 44.6997H290.008L299.523 22.0215H304.841L314.258 44.6997H308.168ZM302.083 28.0778L299.199 35.8615H304.902L302.083 28.0778Z" fill="black"/>
<path d="M330.432 44.7L321.302 29.8711H321.208L321.335 44.7H316.018V22.0259H322.263L331.359 36.826H331.454L331.326 22.0259H336.644V44.7041H330.432V44.7Z" fill="black"/>
<path d="M183.588 76.4868L183.715 60.4393H183.621L177.729 76.4868H173.884L168.152 60.4393H168.058L168.185 76.4868H163.027V53.8086H170.811L175.969 68.3502H176.096L181.028 53.8086H188.939V76.4868H183.588Z" fill="black"/>
<path d="M193.489 76.4868V53.8086H199V76.4868H193.489Z" fill="black"/>
<path d="M217.96 76.4868L208.831 61.658H208.736L208.864 76.4868H203.546V53.8086H209.791L218.888 68.6087H218.982L218.855 53.8086H224.173V76.4868H217.96Z" fill="black"/>
<path d="M228.728 76.4868V53.8086H243.975V58.4534H234.012V62.7125H243.429V67.0987H234.012V71.8092H244.549V76.4868H228.728Z" fill="black"/>
<path d="M260.182 76.4868L255.283 67.4844H253.424V76.4868H248.045V53.8086H256.694C261.052 53.8086 265.377 55.4745 265.377 60.665C265.377 63.7095 263.584 65.8842 260.666 66.7828L266.591 76.4868H260.182ZM256.305 58.2277H253.391V63.5126H255.985C257.745 63.5126 259.956 63.0653 259.956 60.7594C259.956 58.6421 257.942 58.2277 256.305 58.2277Z" fill="black"/>
<path d="M284.526 76.4868L282.766 72.0349H273.989L272.323 76.4868H266.365L275.88 53.8086H281.198L290.615 76.4868H284.526ZM278.441 59.8608L275.556 67.6445H281.26L278.441 59.8608Z" fill="black"/>
<path d="M292.376 76.4868V53.8086H297.887V71.7148H306.663V76.4868H292.376Z" fill="black"/>
<path d="M174.172 108.623C167.188 108.623 161.969 103.752 161.969 96.6417C161.969 89.3709 167.348 84.7261 174.27 84.7261C177.442 84.7261 180.868 85.8791 182.759 88.0578L179.042 91.7753C178.016 90.3679 176.19 89.695 174.463 89.695C170.651 89.695 167.931 92.6411 167.931 96.6458C167.931 100.778 170.59 103.597 174.369 103.597C176.514 103.597 178.213 102.636 179.173 101.291L182.985 104.877C180.995 107.179 177.983 108.623 174.172 108.623Z" fill="black"/>
<path d="M196.083 108.623C189.005 108.623 183.753 103.752 183.753 96.5799C183.753 89.3091 189.005 84.73 196.083 84.73C203.194 84.73 208.446 89.3091 208.446 96.5799C208.45 103.752 203.194 108.623 196.083 108.623ZM196.083 89.6579C192.238 89.6579 189.612 92.604 189.612 96.5758C189.612 100.675 192.271 103.621 196.083 103.621C199.895 103.621 202.586 100.675 202.586 96.5758C202.586 92.604 199.928 89.6579 196.083 89.6579Z" fill="black"/>
<path d="M224.082 108.012L219.183 99.0093H217.325V108.012H211.945V85.3335H220.595C224.952 85.3335 229.277 86.9994 229.277 92.1899C229.277 95.2344 227.484 97.4091 224.567 98.3077L230.492 108.012H224.082ZM220.205 89.7567H217.292V95.0416H219.885C221.645 95.0416 223.857 94.5943 223.857 92.2884C223.857 90.1711 221.838 89.7567 220.205 89.7567Z" fill="black"/>
<path d="M241.25 99.4607H238.526V108.012H233.048V85.3335H241.377C246.342 85.3335 250.248 87.1266 250.248 92.3171C250.252 97.5691 245.993 99.4607 241.25 99.4607ZM240.93 89.7567H238.53V95.1072H240.836C242.887 95.1072 244.775 94.5 244.775 92.354C244.775 90.1711 242.883 89.7567 240.93 89.7567Z" fill="black"/>
<path d="M264.7 108.623C257.622 108.623 252.37 103.752 252.37 96.5799C252.37 89.3091 257.622 84.73 264.7 84.73C271.811 84.73 277.063 89.3091 277.063 96.5799C277.063 103.752 271.811 108.623 264.7 108.623ZM264.7 89.6579C260.855 89.6579 258.229 92.604 258.229 96.5758C258.229 100.675 260.888 103.621 264.7 103.621C268.512 103.621 271.204 100.675 271.204 96.5758C271.204 92.604 268.545 89.6579 264.7 89.6579Z" fill="black"/>
<path d="M292.696 108.012L287.797 99.0093H285.938V108.012H280.559V85.3335H289.208C293.566 85.3335 297.89 86.9994 297.89 92.1899C297.89 95.2344 296.097 97.4091 293.18 98.3077L299.105 108.012H292.696ZM288.822 89.7567H285.909V95.0416H288.502C290.263 95.0416 292.474 94.5943 292.474 92.2884C292.474 90.1711 290.455 89.7567 288.822 89.7567Z" fill="black"/>
<path d="M317.043 108.012L315.283 103.56H306.507L304.841 108.012H298.883L308.398 85.3335H313.716L323.133 108.012H317.043ZM310.954 91.3898L308.07 99.1735H313.773L310.954 91.3898Z" fill="black"/>
<path d="M332.673 90.0111V108.012H327.195V90.0111H320.79V85.3335H339.082V90.0111H332.673Z" fill="black"/>
<path d="M341.453 108.012V85.3335H346.964V108.012H341.453Z" fill="black"/>
<path d="M362.786 108.623C355.708 108.623 350.456 103.752 350.456 96.5799C350.456 89.3091 355.708 84.73 362.786 84.73C369.897 84.73 375.149 89.3091 375.149 96.5799C375.149 103.752 369.897 108.623 362.786 108.623ZM362.786 89.6579C358.941 89.6579 356.315 92.604 356.315 96.5758C356.315 100.675 358.974 103.621 362.786 103.621C366.598 103.621 369.29 100.675 369.29 96.5758C369.29 92.604 366.631 89.6579 362.786 89.6579Z" fill="black"/>
<path d="M393.055 108.012L383.926 93.1828H383.831L383.958 108.012H378.641V85.3335H384.886L393.982 100.134H394.077L393.95 85.3335H399.267V108.012H393.055Z" fill="black"/>
</svg>
