<svg width="76" height="76" viewBox="0 0 76 76" fill="none" xmlns="http://www.w3.org/2000/svg">
<rect width="76" height="76" rx="38" fill="white"/>
<path d="M33.7297 51.9102V49.625H43.0461V51.9102C43.0461 52.2617 42.9289 52.6133 42.7531 52.9648L41.757 54.4297C41.4055 54.957 40.8195 55.3086 40.175 55.3086H36.6008C35.9563 55.3086 35.3703 54.957 35.0188 54.4297L34.0227 52.9648C33.7883 52.6133 33.7297 52.2617 33.7297 51.9102ZM28.1047 35.5625C28.1047 30.1133 32.382 25.3086 38.3586 25.25C44.0422 25.25 48.7297 29.8789 48.7297 35.5625C48.7297 38.1992 47.7336 40.543 46.1516 42.3594C45.1555 43.4727 43.6906 45.8164 43.1047 47.75C43.1047 47.75 43.1047 47.75 43.1047 47.8086H33.6711C33.6711 47.75 33.6711 47.75 33.6711 47.75C33.0852 45.8164 31.6203 43.4727 30.6242 42.3594C29.0422 40.543 28.1047 38.1992 28.1047 35.5625ZM38.4172 30.875C38.8859 30.875 39.3547 30.4648 39.3547 29.9375C39.3547 29.4688 38.8859 29 38.4172 29C34.7844 29 31.8547 31.9883 31.8547 35.5625C31.8547 36.0898 32.2648 36.5 32.7922 36.5C33.2609 36.5 33.7297 36.0898 33.7297 35.5625C33.7297 32.9844 35.7805 30.875 38.4172 30.875Z" fill="black"/>
</svg>
