<svg width="123" height="45" viewBox="0 0 123 45" fill="none" xmlns="http://www.w3.org/2000/svg">
<rect x="0.25" y="0.25" width="122.5" height="44.5" rx="22.25" fill="white" fill-opacity="0.2"/>
<rect x="0.25" y="0.25" width="122.5" height="44.5" rx="22.25" stroke="#5A5A5A" stroke-width="0.5"/>
<rect x="0.5" y="0.5" width="44" height="44" rx="22" fill="#C7C7C7" fill-opacity="0.45"/>
<rect x="0.75" y="0.75" width="43.5" height="43.5" rx="21.75" stroke="white" stroke-opacity="0.2" stroke-width="0.5"/>
<path d="M21.9629 10.0044C23.4531 11.0381 24.9439 12.067 26.4238 13.1147V13.1157C26.5632 13.2147 26.6967 13.347 26.7998 13.4907L26.8916 13.6372C27.4102 14.6072 27.9255 15.5792 28.4375 16.5532L29.9639 19.481C30.0385 19.625 30.0947 19.7826 30.1396 19.9507L22.5605 18.6138C22.4101 18.5622 22.2998 18.4625 22.2217 18.2788L22.1895 18.1929L21.3398 15.6499C21.2923 15.5067 21.2326 15.3608 21.1436 15.1216L20.8516 14.3354L20.666 15.1538C20.1099 17.6022 19.5777 19.9399 19.0322 22.3423C18.4798 22.0605 17.9388 21.7848 17.3662 21.4927C18.5068 17.7673 19.6618 13.9978 20.8174 10.2261C21.189 11.287 21.5607 12.3473 21.9316 13.4077L23.0713 16.6841C23.118 16.8193 23.1817 16.9556 23.2842 17.0669C23.3921 17.1839 23.5303 17.2578 23.6992 17.2896V17.2905C24.8055 17.4995 25.9206 17.7138 27.0566 17.8687L27.5176 17.9312L27.3164 17.5122C26.9647 16.7809 26.6425 15.9626 26.2295 15.2524C25.861 14.6189 25.403 14.0371 24.7441 13.604L24.4492 13.4272L24.2217 13.2974C23.997 13.1626 23.7798 13.0141 23.5625 12.8579L22.6729 12.2114C22.6171 12.172 22.573 12.1407 22.5371 12.1079L22.5039 12.0747H22.5029C22.3176 11.4019 22.1463 10.7261 21.9629 10.0044Z" stroke="white" stroke-width="0.5"/>
<path d="M22.9893 22.1904C23.001 22.3112 23.0145 22.433 23.0371 22.5527L23.084 22.752C23.3103 23.5424 23.5466 24.3366 23.7832 25.1299L24.4844 27.502C25.1887 29.9321 25.8803 32.3654 26.5762 34.7988C25.574 34.1961 24.5717 33.5943 23.5703 32.9912L20.5146 31.1426H20.5137C20.3908 31.068 20.2464 31.0013 20.0811 31.0117C19.9542 31.0198 19.8452 31.0709 19.748 31.1416L19.6543 31.2178C18.811 31.9763 17.9477 32.7084 17.0264 33.5068L16.71 33.7812L17.1016 33.9297L18.6934 34.5312C18.8014 34.5719 18.9208 34.6074 19.0137 34.6377C19.1135 34.6703 19.1988 34.7022 19.2734 34.7422V34.7412C20.1863 35.233 21.1144 35.2059 22.0293 34.8887L22.0283 34.8877C22.5404 34.7106 23.0384 34.5309 23.5459 34.3633L23.5469 34.3643C23.5988 34.3475 23.6466 34.3341 23.6865 34.3291C23.7054 34.3267 23.7178 34.3266 23.7246 34.3271L24.8721 34.916C25.1078 35.039 25.3468 35.1644 25.5918 35.293L25.5449 35.3105C24.8797 35.5161 24.2152 35.7214 23.5508 35.9258L21.5557 36.5342C21.0853 36.676 20.6197 36.7166 20.1719 36.6045L19.9814 36.5469C18.0212 35.8518 16.0692 35.1386 14.0166 34.3174C15.52 33.008 17.0567 31.7173 18.5361 30.3584L19.1719 29.7666C19.4855 29.4698 19.7245 29.3378 19.9385 29.3115C20.1191 29.2895 20.324 29.3379 20.5928 29.5068L20.7119 29.5869C21.6295 30.2382 22.6069 30.8099 23.5361 31.4014V31.4004C23.6555 31.4766 23.8134 31.5816 24.0674 31.6182L24.459 31.6748L24.3418 31.2969C23.4126 28.3046 22.4816 25.3129 21.5488 22.3057L22.9893 22.1904Z" stroke="white" stroke-width="0.5"/>
<path d="M25.167 20.2466C26.1189 20.4102 27.0737 20.5696 28.0244 20.7319L28.0283 20.7329L28.0352 20.7349L28.043 20.7358L31.5596 21.355L31.4336 21.4653L27.3076 24.9106C27.0932 25.0912 26.8963 25.3164 26.7461 25.562C26.6802 25.6691 26.6568 25.796 26.6514 25.8999C26.6485 25.9537 26.6497 26.009 26.6553 26.063L26.6846 26.2202C27.2875 28.4117 27.9033 30.5993 28.5322 32.8481L28.5967 33.0806L28.832 33.0239C29.2335 32.9263 29.6555 32.8417 30.0684 32.7339L30.4775 32.6167C30.9619 32.4633 31.2889 32.3785 31.5518 32.3013C31.8088 32.2258 32.01 32.1562 32.1973 32.0356C32.3852 31.9146 32.5438 31.7526 32.7373 31.5171C32.8333 31.4002 32.9424 31.2597 33.0713 31.0913L33.5244 30.4966L36.2881 26.8911C36.3799 26.7709 36.4583 26.6588 36.5088 26.5562C36.5585 26.4551 36.6018 26.3218 36.5586 26.1782C36.5156 26.0353 36.4072 25.9476 36.3125 25.8911C36.2161 25.8336 36.0917 25.7831 35.9551 25.7329H35.9541C34.1537 25.0705 32.3565 24.3954 30.5566 23.7241C30.8956 23.3634 31.2126 23.0232 31.5469 22.6997C31.555 22.697 31.5689 22.6948 31.5879 22.6929C31.6305 22.6886 31.6729 22.6927 31.6963 22.6997V22.7007C32.4295 22.9296 33.1592 23.1541 33.8818 23.396L34.6016 23.644C36.1029 24.1795 37.5949 24.74 39.1445 25.314C39.1402 25.3221 39.1369 25.3307 39.1328 25.3384C39.1096 25.3817 39.087 25.4215 39.0645 25.4585L38.9951 25.562H38.9941L34.6865 31.2446V31.2456C34.3523 31.6867 34.0312 32.1254 33.6953 32.5474L33.3535 32.9634C33.1834 33.1613 32.9793 33.3345 32.7832 33.4214L32.7002 33.4536C31.0634 33.9697 29.4149 34.4416 27.7646 34.9302L27.7119 34.7876C27.0855 32.6092 26.4519 30.436 25.833 28.2583L25.2197 26.0776C25.1194 25.7164 25.0519 25.4832 25.0176 25.312C24.9832 25.1408 24.9933 25.0791 25.0059 25.0454C25.0198 25.008 25.0529 24.9601 25.1777 24.8501L25.7061 24.3882C25.9764 24.136 26.2549 23.8985 26.5391 23.6636L27.4033 22.9497H27.4043C27.535 22.8386 27.6652 22.7138 27.8799 22.519L28.2646 22.1704L27.751 22.0874L25.4932 21.7329C24.731 21.6178 23.9742 21.5085 23.2236 21.4038H23.2246L22.6934 21.3247H22.6924C21.9184 21.2035 21.1409 21.0814 20.3262 20.9546C20.4232 20.4413 20.5122 19.9626 20.6201 19.4897C20.6356 19.4857 20.6513 19.4818 20.666 19.48C20.681 19.4781 20.6899 19.478 20.6924 19.478V19.4771L25.167 20.2466Z" stroke="white" stroke-width="0.5"/>
<path d="M10.6885 21.0046V21.0037L15.2627 24.9626C15.3304 25.0215 15.3971 25.0811 15.4629 25.1414L15.6572 25.325H15.6582C15.767 25.4312 15.8305 25.5276 15.8604 25.6218C15.8817 25.6891 15.8897 25.7678 15.8711 25.866L15.8428 25.9714C15.7244 26.3265 15.6129 26.6845 15.5049 27.0427L15.1865 28.116C15.0882 28.4465 15.0054 28.7955 14.9834 29.2048L14.9531 29.7634L15.3887 29.4128C17.3527 27.8352 19.3164 26.2561 21.3037 24.6599C21.4388 25.105 21.5733 25.5449 21.6973 25.9871L21.8232 26.4529V26.4539C21.8211 26.4457 21.8241 26.45 21.8223 26.4705C21.8206 26.4889 21.816 26.5122 21.8086 26.5359C21.8012 26.5596 21.7917 26.5786 21.7842 26.5916C21.7827 26.5941 21.7812 26.5959 21.7803 26.5974C18.8535 28.7805 15.9182 30.9524 12.9834 33.1248C13.0068 32.981 13.0307 32.8393 13.0537 32.699L13.2148 31.7664C13.3719 30.9173 13.5283 30.0683 13.6875 29.2205L14.1748 26.6785C14.2126 26.4864 14.2237 26.3004 14.167 26.1189C14.1238 25.9807 14.0466 25.8632 13.9443 25.7556L13.834 25.6511C13.2509 25.1499 12.6743 24.6399 12.0996 24.1267L10.375 22.5818L10.3721 22.5798L10.0127 22.2683L9.81934 22.0994L9.65625 22.2966C9.39396 22.6129 9.13363 22.9234 8.87695 23.2322L8.11914 24.1589C7.99977 24.308 7.92988 24.4819 7.93945 24.6716C7.94898 24.8584 8.03379 25.0277 8.15918 25.1736V25.1746C8.45827 25.5235 8.75336 25.8766 9.0498 26.2312C9.34579 26.5853 9.64369 26.9409 9.94629 27.2917V27.2927C10.3221 27.7289 10.6995 28.1642 11.0791 28.5974L12.2266 29.8884C12.3159 29.9872 12.3662 30.0769 12.3916 30.1648C12.4106 30.2307 12.4182 30.3048 12.4111 30.3923L12.3984 30.4851V30.4861C12.318 30.9459 12.2444 31.4085 12.1631 31.9099C10.0209 29.4694 7.93041 27.0881 5.8291 24.6941C7.13984 23.1428 8.39995 21.65 9.68164 20.1335C10.0246 20.4302 10.3563 20.7182 10.6885 21.0046Z" stroke="white" stroke-width="0.5"/>
<path d="M19.7686 9.75C19.608 10.3076 19.4561 10.8499 19.2969 11.3857L19.1055 12.0117C18.3693 14.3567 17.61 16.714 16.875 19.0625C16.8399 19.174 16.8094 19.2005 16.7988 19.208C16.7929 19.2122 16.782 19.2191 16.7588 19.2246L16.6455 19.2354H16.6445C16.2101 19.2396 15.7755 19.2509 15.3418 19.2656L14.0439 19.3125C13.9427 19.3162 13.8193 19.3409 13.7627 19.3486L13.6201 19.3672L13.5645 19.501C13.5572 19.5187 13.5502 19.537 13.543 19.5547C13.5357 19.5722 13.5287 19.5899 13.5215 19.6074L13.4424 19.7998L13.6162 19.9121C15.7862 21.3207 17.9574 22.7289 20.1572 24.1562C19.6778 24.6958 19.2018 25.2317 18.7158 25.7783L16.5332 24.0156C14.5111 22.4042 12.4845 20.7974 10.4609 19.1885H10.46C10.4346 19.1683 10.4089 19.1514 10.3906 19.1396C10.3688 19.1256 10.3579 19.1188 10.3457 19.1104C10.3165 19.0415 10.2971 18.9847 10.2861 18.9385C10.2894 18.9372 10.2926 18.9358 10.2959 18.9346C10.3163 18.9272 10.3341 18.9224 10.3457 18.9199L10.3447 18.9189C11.1915 18.7424 12.0406 18.5689 12.8896 18.3936L15.4355 17.8594C15.5583 17.8331 15.677 17.7642 15.7676 17.6885C15.8566 17.6141 15.9535 17.5046 15.9961 17.3721C16.2895 16.4625 16.5764 15.5502 16.8623 14.6377L17.7168 11.9014L17.7178 11.9004C17.7328 11.8512 17.7404 11.8033 17.7461 11.7646C17.7524 11.7219 17.7561 11.6898 17.7637 11.6455L17.8184 11.3271L17.4971 11.3535C17.2685 11.3723 17.034 11.4037 16.8145 11.498C16.6443 11.5712 16.4911 11.6791 16.3535 11.834L16.2207 12.0049C15.6128 12.9041 14.9962 13.797 14.375 14.6865L12.502 17.3477C12.4422 17.4316 12.338 17.5112 12.2354 17.5576L12.1348 17.5918C11.5848 17.7129 11.0322 17.8049 10.4707 17.9014L12.2344 15.3154C13.0711 14.0991 13.9212 12.8861 14.7578 11.6631L15.5889 10.4365C15.7592 10.1824 15.9273 10.0123 16.1123 9.90723C16.2489 9.82969 16.4057 9.78202 16.5967 9.76855L16.7988 9.7666C17.7905 9.81376 18.7979 9.75986 19.7686 9.75Z" stroke="white" stroke-width="0.5"/>
<path d="M21.6816 19.3594L28.0764 20.4884L28.0852 20.4894L31.622 21.114L31.6298 21.1161" fill="white"/>
<path d="M55.4824 17.9106H57.3569V25.5H55.8369V20.2847L53.7368 24.1357H52.8774L50.7881 20.2847V25.5H49.2681V17.9106H51.1641L53.3179 21.8584L55.4824 17.9106ZM63.6854 24.791C63.1089 25.3532 62.3927 25.6343 61.5369 25.6343C60.6811 25.6343 59.9632 25.3532 59.3831 24.791C58.8066 24.2288 58.5184 23.5306 58.5184 22.6963C58.5184 21.862 58.8066 21.1637 59.3831 20.6016C59.9632 20.0394 60.6811 19.7583 61.5369 19.7583C62.3927 19.7583 63.1089 20.0394 63.6854 20.6016C64.2619 21.1637 64.5501 21.862 64.5501 22.6963C64.5501 23.5306 64.2619 24.2288 63.6854 24.791ZM61.5369 24.2485C61.9809 24.2485 62.348 24.1017 62.638 23.8081C62.928 23.5109 63.0731 23.1403 63.0731 22.6963C63.0731 22.2523 62.928 21.8835 62.638 21.5898C62.348 21.2926 61.9809 21.144 61.5369 21.144C61.0965 21.144 60.7295 21.2926 60.4359 21.5898C60.1422 21.887 59.9954 22.2559 59.9954 22.6963C59.9954 23.1367 60.1422 23.5055 60.4359 23.8027C60.7295 24.0999 61.0965 24.2485 61.5369 24.2485ZM68.6764 19.8013H68.9181V21.2783H68.6764C68.1679 21.2783 67.7705 21.418 67.484 21.6973C67.2011 21.9766 67.0597 22.3561 67.0597 22.8359V25.5H65.631V19.8926H67.0597V20.6177C67.4894 20.0734 68.0283 19.8013 68.6764 19.8013ZM73.9199 19.8926H75.3486V25.5H73.9199V24.8286C73.4293 25.3657 72.8206 25.6343 72.0937 25.6343C71.3131 25.6343 70.6614 25.3532 70.1386 24.791C69.6158 24.2288 69.3545 23.5306 69.3545 22.6963C69.3545 21.862 69.6158 21.1637 70.1386 20.6016C70.6614 20.0394 71.3131 19.7583 72.0937 19.7583C72.8242 19.7583 73.4329 20.0251 73.9199 20.5586V19.8926ZM72.3676 24.2485C72.8116 24.2485 73.1805 24.0999 73.4741 23.8027C73.7713 23.5055 73.9199 23.1367 73.9199 22.6963C73.9199 22.2559 73.7713 21.887 73.4741 21.5898C73.1805 21.2926 72.8116 21.144 72.3676 21.144C71.9272 21.144 71.5602 21.2926 71.2666 21.5898C70.9729 21.887 70.8261 22.2559 70.8261 22.6963C70.8261 23.1367 70.9729 23.5055 71.2666 23.8027C71.5602 24.0999 71.9272 24.2485 72.3676 24.2485ZM79.4373 25.6343C78.5815 25.6343 77.8636 25.3532 77.2835 24.791C76.707 24.2288 76.4187 23.5306 76.4187 22.6963C76.4187 21.862 76.707 21.1637 77.2835 20.6016C77.8636 20.0394 78.5815 19.7583 79.4373 19.7583C79.9959 19.7583 80.5008 19.8836 80.9519 20.1343C81.4067 20.3849 81.763 20.7251 82.0208 21.1548L80.7747 21.9014C80.6458 21.6722 80.4632 21.4896 80.2268 21.3535C79.9941 21.2139 79.7309 21.144 79.4373 21.144C78.9969 21.144 78.6298 21.2926 78.3362 21.5898C78.0426 21.887 77.8958 22.2559 77.8958 22.6963C77.8958 23.1367 78.0426 23.5055 78.3362 23.8027C78.6298 24.0999 78.9969 24.2485 79.4373 24.2485C79.7273 24.2485 79.9905 24.1805 80.2268 24.0444C80.4632 23.9048 80.6458 23.7186 80.7747 23.4858L82.0208 24.2324C81.763 24.6657 81.4067 25.0076 80.9519 25.2583C80.5008 25.509 79.9959 25.6343 79.4373 25.6343ZM88.462 22.707C88.462 22.8861 88.4513 23.0544 88.4298 23.2119H84.0846C84.1848 23.5664 84.3764 23.8475 84.6593 24.0552C84.9422 24.2629 85.2859 24.3667 85.6905 24.3667C86.0164 24.3667 86.3154 24.3022 86.5875 24.1733C86.8596 24.0409 87.0745 23.8743 87.232 23.6738L88.1881 24.5117C87.8909 24.8662 87.5221 25.1419 87.0816 25.3389C86.6448 25.5358 86.1668 25.6343 85.6476 25.6343C85.0603 25.6343 84.5286 25.5054 84.0523 25.2476C83.5761 24.9897 83.2037 24.6353 82.9352 24.1841C82.6666 23.7293 82.5323 23.2262 82.5323 22.6748C82.5323 22.1305 82.6612 21.6364 82.919 21.1924C83.1804 20.7448 83.5385 20.3939 83.9933 20.1396C84.4516 19.8854 84.9583 19.7583 85.5133 19.7583C86.3548 19.7583 87.0566 20.0394 87.6188 20.6016C88.1809 21.1602 88.462 21.862 88.462 22.707ZM86.4103 21.3267C86.1524 21.1154 85.8499 21.0098 85.5025 21.0098C85.1552 21.0098 84.8526 21.1154 84.5948 21.3267C84.337 21.5343 84.1633 21.8136 84.0738 22.1646H86.9366C86.8471 21.8136 86.6716 21.5343 86.4103 21.3267ZM93.7646 19.8926H95.1933V25.5H93.7646V24.8286C93.274 25.3657 92.6653 25.6343 91.9384 25.6343C91.1578 25.6343 90.5061 25.3532 89.9833 24.791C89.4605 24.2288 89.1991 23.5306 89.1991 22.6963C89.1991 21.862 89.4605 21.1637 89.9833 20.6016C90.5061 20.0394 91.1578 19.7583 91.9384 19.7583C92.6689 19.7583 93.2776 20.0251 93.7646 20.5586V19.8926ZM92.2123 24.2485C92.6563 24.2485 93.0252 24.0999 93.3188 23.8027C93.616 23.5055 93.7646 23.1367 93.7646 22.6963C93.7646 22.2559 93.616 21.887 93.3188 21.5898C93.0252 21.2926 92.6563 21.144 92.2123 21.144C91.7719 21.144 91.4049 21.2926 91.1113 21.5898C90.8176 21.887 90.6708 22.2559 90.6708 22.6963C90.6708 23.1367 90.8176 23.5055 91.1113 23.8027C91.4049 24.0999 91.7719 24.2485 92.2123 24.2485ZM102.193 22.707C102.193 22.8861 102.182 23.0544 102.161 23.2119H97.8157C97.9159 23.5664 98.1075 23.8475 98.3904 24.0552C98.6732 24.2629 99.017 24.3667 99.4216 24.3667C99.7475 24.3667 100.046 24.3022 100.319 24.1733C100.591 24.0409 100.806 23.8743 100.963 23.6738L101.919 24.5117C101.622 24.8662 101.253 25.1419 100.813 25.3389C100.376 25.5358 99.8979 25.6343 99.3787 25.6343C98.7914 25.6343 98.2597 25.5054 97.7834 25.2476C97.3072 24.9897 96.9348 24.6353 96.6662 24.1841C96.3977 23.7293 96.2634 23.2262 96.2634 22.6748C96.2634 22.1305 96.3923 21.6364 96.6501 21.1924C96.9115 20.7448 97.2696 20.3939 97.7244 20.1396C98.1827 19.8854 98.6894 19.7583 99.2444 19.7583C100.086 19.7583 100.788 20.0394 101.35 20.6016C101.912 21.1602 102.193 21.862 102.193 22.707ZM100.141 21.3267C99.8835 21.1154 99.581 21.0098 99.2336 21.0098C98.8863 21.0098 98.5837 21.1154 98.3259 21.3267C98.0681 21.5343 97.8944 21.8136 97.8049 22.1646H100.668C100.578 21.8136 100.403 21.5343 100.141 21.3267Z" fill="white"/>
</svg>
