<svg width="49" height="53" viewBox="0 0 49 53" fill="none" xmlns="http://www.w3.org/2000/svg">
<rect x="0.5" y="0.650879" width="48" height="51.7997" rx="24" fill="#070707"/>
<path d="M25.4313 17.4009C25.4313 20.6196 30.6813 21.3384 30.6813 26.6509C30.6813 29.9634 27.9625 32.6509 24.6813 32.6509C21.3688 32.6509 18.6813 29.9634 18.6813 26.6509C18.6813 24.8384 19.525 23.3384 20.3688 22.4634C20.8375 21.9634 21.6813 22.2759 21.6813 22.9634V25.6509C21.6813 26.7446 22.525 27.6509 23.65 27.6509C24.7438 27.6821 25.6813 26.7759 25.6813 25.6509C25.6813 22.9009 20.1813 22.6509 24.025 16.9946C24.4625 16.4009 25.4313 16.6821 25.4313 17.4009Z" fill="white"/>
</svg>
