<svg width="76" height="76" viewBox="0 0 76 76" fill="none" xmlns="http://www.w3.org/2000/svg">
<rect width="76" height="76" rx="38" fill="black"/>
<path d="M50.4953 30.1719C51.55 30.6406 52.2531 31.6367 52.2531 32.75C52.2531 45.7578 44.2844 52.9648 39.2453 55.0742C38.5422 55.3672 37.7805 55.3672 37.0773 55.0742C30.8078 52.4375 24.1281 44.4102 24.1281 32.75C24.1281 31.6367 24.7727 30.6406 25.8273 30.1719L37.0773 25.4844C37.4289 25.3672 37.7805 25.3086 38.1906 25.3086C38.5422 25.3086 38.8938 25.3672 39.2453 25.4844L50.4953 30.1719ZM38.1906 51.4414C43.6398 48.6875 48.2688 42.2422 48.4445 33.3945L38.1906 29.1172V51.4414Z" fill="white"/>
</svg>
