<svg width="60" height="60" viewBox="0 0 60 60" fill="none" xmlns="http://www.w3.org/2000/svg">
<rect width="60" height="60" rx="30" fill="black"/>
<path d="M38.2031 27.7812C38.9062 28.0938 39.375 28.7578 39.375 29.5C39.375 38.1719 34.0625 42.9766 30.7031 44.3828C30.2344 44.5781 29.7266 44.5781 29.2578 44.3828C25.0781 42.625 20.625 37.2734 20.625 29.5C20.625 28.7578 21.0547 28.0938 21.7578 27.7812L29.2578 24.6562C29.4922 24.5781 29.7266 24.5391 30 24.5391C30.2344 24.5391 30.4688 24.5781 30.7031 24.6562L38.2031 27.7812ZM30 41.9609C33.6328 40.125 36.7188 35.8281 36.8359 29.9297L30 27.0781V41.9609Z" fill="white"/>
</svg>
