<svg width="76" height="76" viewBox="0 0 76 76" fill="none" xmlns="http://www.w3.org/2000/svg">
<rect width="76" height="76" rx="38" fill="black"/>
<path d="M53.3078 25.8359C54.4211 28.3555 55.0656 31.4023 55.0656 34.332C55.0656 44.4102 48.5617 52.6719 39.3625 53.3164C34.6164 53.8438 31.0422 51.3828 29.1086 48.8047C26.1203 51.3242 25.007 53.9023 24.8898 54.1367C24.4797 55.0742 23.425 55.543 22.4289 55.1328C21.4914 54.7227 21.0227 53.668 21.4328 52.6719C22.8391 49.332 29.05 40.25 43.8156 40.25C44.2844 40.25 44.7531 39.8398 44.7531 39.3125C44.7531 38.8438 44.2844 38.375 43.8156 38.375C36.1398 38.375 30.7492 40.6602 26.9992 43.3555C26.9406 42.9453 26.9406 42.5352 26.9406 42.125C26.9406 35.9141 31.9797 30.875 38.1906 30.875H42.8781C46.5695 30.875 49.7922 28.9414 51.6086 25.7773C52.0188 25.0742 52.9563 25.1328 53.3078 25.8359Z" fill="white"/>
</svg>
