<svg width="76" height="76" viewBox="0 0 76 76" fill="none" xmlns="http://www.w3.org/2000/svg">
<rect width="76" height="76" rx="38" fill="white"/>
<path d="M47.5656 28.0625V30.875H41.9406V28.0625C41.9406 27.5938 42.3508 27.125 42.8781 27.125H46.6281C47.0969 27.125 47.5656 27.5938 47.5656 28.0625ZM26.882 34.625C26.9406 33.6289 27.7609 32.75 28.757 32.75H34.4406V42.125H32.5656V51.5C32.5656 52.5547 31.6867 53.375 30.6906 53.375H25.0656C24.0109 53.375 23.1906 52.5547 23.1906 51.5V48.9219C23.3664 41.3633 26.7648 40.1328 26.882 34.625ZM49.4406 34.625C49.5578 40.1328 52.9563 41.3633 53.1906 48.9219V51.5C53.1906 52.5547 52.3117 53.375 51.3156 53.375H45.6906C44.6359 53.375 43.8156 52.5547 43.8156 51.5V42.125H41.9406V32.75H47.5656C48.5617 32.75 49.382 33.6289 49.4406 34.625ZM33.5031 27.125C33.9719 27.125 34.4406 27.5938 34.4406 28.0625V30.875H28.8156V28.0625C28.8156 27.5938 29.2258 27.125 29.7531 27.125H33.5031ZM36.3156 42.125V32.75H40.0656V42.125H36.3156Z" fill="#060606"/>
</svg>
