<svg width="61" height="60" viewBox="0 0 61 60" fill="none" xmlns="http://www.w3.org/2000/svg">
<rect x="0.621582" width="60" height="60" rx="30" fill="black"/>
<path d="M41.1841 27C41.6919 27 42.1216 27.4297 42.1216 27.9375V30.125C42.1216 31.5312 41.2231 32.9766 39.6997 34.0703C38.4497 34.9688 36.9653 35.5156 35.4028 35.7109C34.1528 37.7422 32.7466 38.5625 32.7466 38.5625V41.375H34.6216C35.9888 41.375 37.1216 42.1953 37.1216 43.5625V44.0312C37.1216 44.3047 36.8872 44.5 36.6528 44.5H25.0903C24.8169 44.5 24.6216 44.3047 24.6216 44.0312V43.5625C24.6216 42.1953 25.7153 41.375 27.1216 41.375H28.9966V38.5625C28.9966 38.5625 27.5513 37.7422 26.3013 35.7109C24.7388 35.5156 23.2544 34.9688 22.0044 34.0703C20.481 32.9766 19.6216 31.5312 19.6216 30.125V27.9375C19.6216 27.4297 20.0122 27 20.5591 27H24.6216V25.4375C24.6216 24.9297 25.0122 24.5 25.5591 24.5H36.1841C36.6919 24.5 37.1216 24.9297 37.1216 25.4375V27H41.1841ZM23.4888 32.0391C23.9575 32.3906 24.5044 32.6641 25.1294 32.8984C24.856 31.9219 24.6606 30.7891 24.6216 29.5H22.1216V30.125C22.1216 30.5938 22.5122 31.375 23.4888 32.0391ZM39.6216 30.125V29.5H37.0825C37.0435 30.7891 36.8481 31.9219 36.5747 32.8984C37.1997 32.6641 37.7466 32.3906 38.2153 32.0391C38.9185 31.5703 39.6216 30.7891 39.6216 30.125Z" fill="white"/>
</svg>
